<svg width="482" height="334" viewBox="0 0 482 334" fill="none" xmlns="http://www.w3.org/2000/svg">
<path d="M34.902 318.633C34.3703 319.078 33.9933 319.556 33.771 320.068C33.5487 320.571 33.4375 321.108 33.4375 321.678C33.4375 322.142 33.5052 322.562 33.6405 322.939C33.7855 323.316 33.9885 323.64 34.2495 323.911C34.5105 324.182 34.8198 324.394 35.1775 324.549C35.5448 324.694 35.9508 324.766 36.3955 324.766C37.0432 324.766 37.6473 324.684 38.208 324.52C38.7687 324.346 39.2907 324.104 39.774 323.795L34.902 318.633ZM49.3585 328H44.9215C44.6992 328 44.501 327.99 44.327 327.971C44.153 327.942 43.9887 327.898 43.834 327.84C43.689 327.782 43.5488 327.7 43.4135 327.594C43.2782 327.488 43.1332 327.352 42.9785 327.188L42.065 326.231C41.1467 326.869 40.1413 327.362 39.049 327.71C37.9663 328.058 36.8112 328.232 35.5835 328.232C34.7425 328.232 33.916 328.087 33.104 327.797C32.3017 327.507 31.5863 327.096 30.958 326.564C30.3297 326.023 29.8222 325.371 29.4355 324.607C29.0488 323.843 28.8555 322.988 28.8555 322.04C28.8555 321.402 28.9522 320.798 29.1455 320.228C29.3485 319.658 29.6288 319.131 29.9865 318.647C30.3538 318.154 30.784 317.71 31.277 317.313C31.77 316.907 32.3162 316.555 32.9155 316.255C32.4515 315.549 32.118 314.858 31.915 314.181C31.712 313.505 31.6105 312.847 31.6105 312.209C31.6105 311.455 31.7458 310.745 32.0165 310.078C32.2968 309.401 32.698 308.812 33.22 308.309C33.7517 307.797 34.3993 307.391 35.163 307.091C35.9363 306.791 36.8208 306.641 37.8165 306.641C38.7542 306.641 39.5807 306.782 40.296 307.062C41.0113 307.333 41.6155 307.695 42.1085 308.149C42.6015 308.594 42.9882 309.111 43.2685 309.701C43.5488 310.291 43.7228 310.895 43.7905 311.513L40.8905 312.093C40.3782 312.209 40.0012 312.006 39.7595 311.484C39.5372 310.982 39.2762 310.6 38.9765 310.339C38.6865 310.078 38.2998 309.947 37.8165 309.947C37.4782 309.947 37.1833 310.01 36.932 310.136C36.6807 310.262 36.468 310.426 36.294 310.629C36.1297 310.832 36.004 311.069 35.917 311.339C35.83 311.61 35.7865 311.89 35.7865 312.18C35.7865 312.432 35.8058 312.673 35.8445 312.905C35.8928 313.128 35.9702 313.36 36.0765 313.601C36.1828 313.833 36.323 314.075 36.497 314.326C36.6807 314.578 36.9078 314.853 37.1785 315.153L42.3985 320.648C42.6595 320.078 42.8722 319.479 43.0365 318.85C43.2008 318.212 43.3072 317.56 43.3555 316.893C43.3845 316.622 43.4763 316.41 43.631 316.255C43.7857 316.1 43.9935 316.023 44.2545 316.023H47.0965C47.0965 317.425 46.908 318.739 46.531 319.967C46.154 321.195 45.6223 322.316 44.936 323.331L49.3585 328ZM68.1988 319.923L66.2413 314.138C66.0963 313.771 65.9416 313.34 65.7773 312.847C65.6129 312.345 65.4486 311.803 65.2843 311.223C65.1393 311.813 64.9846 312.359 64.8203 312.862C64.6559 313.365 64.5013 313.8 64.3563 314.167L62.4133 319.923H68.1988ZM75.9853 328H72.1863C71.7609 328 71.4178 327.903 71.1568 327.71C70.8958 327.507 70.6976 327.251 70.5623 326.941L69.3153 323.258H61.2823L60.0353 326.941C59.9289 327.212 59.7356 327.459 59.4553 327.681C59.1846 327.894 58.8463 328 58.4403 328H54.6123L62.7903 306.873H67.8073L75.9853 328ZM82.5809 328H77.6509V306.873H82.5809V328ZM93.5298 316.806C94.1968 316.806 94.7623 316.724 95.2263 316.559C95.7 316.385 96.0866 316.149 96.3863 315.849C96.686 315.549 96.9035 315.201 97.0388 314.805C97.1741 314.399 97.2418 313.964 97.2418 313.5C97.2418 312.572 96.9373 311.847 96.3283 311.325C95.729 310.803 94.7961 310.542 93.5298 310.542H91.5578V316.806H93.5298ZM103.941 328H99.5038C98.6821 328 98.0925 327.691 97.7348 327.072L94.2258 320.938C94.0615 320.677 93.8778 320.489 93.6748 320.373C93.4718 320.247 93.1818 320.184 92.8048 320.184H91.5578V328H86.6568V306.873H93.5298C95.0571 306.873 96.3573 307.033 97.4303 307.352C98.513 307.661 99.3926 308.096 100.069 308.657C100.756 309.218 101.253 309.88 101.563 310.643C101.872 311.407 102.027 312.238 102.027 313.137C102.027 313.824 101.935 314.471 101.751 315.08C101.568 315.689 101.297 316.255 100.939 316.777C100.582 317.289 100.137 317.748 99.6053 318.154C99.0833 318.56 98.4791 318.894 97.7928 319.155C98.1118 319.319 98.4115 319.527 98.6918 319.778C98.9721 320.02 99.2235 320.31 99.4458 320.648L103.941 328ZM126.667 322.533C126.783 322.533 126.899 322.558 127.015 322.606C127.131 322.645 127.242 322.717 127.349 322.823L129.292 324.868C128.441 325.98 127.373 326.821 126.087 327.391C124.811 327.952 123.298 328.232 121.549 328.232C119.944 328.232 118.504 327.961 117.228 327.42C115.961 326.869 114.884 326.115 113.994 325.158C113.115 324.191 112.438 323.051 111.964 321.736C111.491 320.412 111.254 318.976 111.254 317.429C111.254 315.854 111.51 314.409 112.022 313.094C112.535 311.77 113.255 310.629 114.183 309.672C115.111 308.715 116.222 307.971 117.518 307.439C118.813 306.907 120.239 306.641 121.795 306.641C122.588 306.641 123.332 306.714 124.028 306.859C124.734 306.994 125.391 307.188 126 307.439C126.609 307.681 127.17 307.975 127.682 308.323C128.195 308.671 128.649 309.048 129.045 309.454L127.392 311.673C127.286 311.808 127.16 311.934 127.015 312.05C126.87 312.156 126.667 312.209 126.406 312.209C126.232 312.209 126.068 312.171 125.913 312.093C125.759 312.016 125.594 311.924 125.42 311.818C125.246 311.702 125.053 311.581 124.84 311.455C124.637 311.32 124.391 311.199 124.101 311.093C123.82 310.977 123.487 310.88 123.1 310.803C122.723 310.726 122.279 310.687 121.766 310.687C120.954 310.687 120.21 310.837 119.533 311.136C118.866 311.436 118.286 311.876 117.793 312.456C117.31 313.026 116.933 313.732 116.662 314.573C116.401 315.404 116.271 316.356 116.271 317.429C116.271 318.512 116.416 319.474 116.706 320.315C117.005 321.156 117.407 321.866 117.909 322.446C118.422 323.017 119.016 323.452 119.693 323.751C120.369 324.051 121.094 324.201 121.868 324.201C122.312 324.201 122.718 324.182 123.086 324.143C123.453 324.095 123.796 324.022 124.115 323.925C124.434 323.819 124.734 323.684 125.014 323.519C125.295 323.345 125.58 323.128 125.87 322.867C125.986 322.77 126.111 322.693 126.247 322.635C126.382 322.567 126.522 322.533 126.667 322.533ZM151.685 317.429C151.685 318.957 151.419 320.378 150.887 321.692C150.365 323.007 149.626 324.153 148.669 325.129C147.712 326.096 146.557 326.854 145.203 327.405C143.86 327.957 142.366 328.232 140.723 328.232C139.079 328.232 137.581 327.957 136.228 327.405C134.874 326.854 133.714 326.096 132.748 325.129C131.791 324.153 131.046 323.007 130.515 321.692C129.993 320.378 129.732 318.957 129.732 317.429C129.732 315.902 129.993 314.481 130.515 313.166C131.046 311.852 131.791 310.711 132.748 309.744C133.714 308.778 134.874 308.019 136.228 307.468C137.581 306.917 139.079 306.641 140.723 306.641C142.366 306.641 143.86 306.922 145.203 307.482C146.557 308.033 147.712 308.792 148.669 309.759C149.626 310.726 150.365 311.866 150.887 313.181C151.419 314.496 151.685 315.912 151.685 317.429ZM146.668 317.429C146.668 316.385 146.532 315.448 146.262 314.616C145.991 313.775 145.6 313.065 145.087 312.485C144.585 311.905 143.966 311.46 143.231 311.151C142.497 310.842 141.66 310.687 140.723 310.687C139.775 310.687 138.93 310.842 138.185 311.151C137.451 311.46 136.827 311.905 136.315 312.485C135.812 313.065 135.425 313.775 135.155 314.616C134.884 315.448 134.749 316.385 134.749 317.429C134.749 318.483 134.884 319.43 135.155 320.271C135.425 321.103 135.812 321.808 136.315 322.388C136.827 322.968 137.451 323.413 138.185 323.722C138.93 324.022 139.775 324.172 140.723 324.172C141.66 324.172 142.497 324.022 143.231 323.722C143.966 323.413 144.585 322.968 145.087 322.388C145.6 321.808 145.991 321.103 146.262 320.271C146.532 319.43 146.668 318.483 146.668 317.429ZM173.013 306.873V328H170.461C170.084 328 169.765 327.942 169.504 327.826C169.253 327.7 169.001 327.488 168.75 327.188L158.788 314.587C158.827 314.964 158.851 315.332 158.861 315.689C158.88 316.037 158.89 316.366 158.89 316.675V328H154.569V306.873H157.15C157.363 306.873 157.541 306.883 157.686 306.902C157.831 306.922 157.962 306.96 158.078 307.018C158.194 307.067 158.305 307.139 158.411 307.236C158.518 307.333 158.639 307.463 158.774 307.627L168.822 320.315C168.774 319.909 168.74 319.517 168.721 319.14C168.702 318.754 168.692 318.391 168.692 318.053V306.873H173.013ZM196.281 317.429C196.281 318.957 196.015 320.368 195.483 321.663C194.961 322.949 194.222 324.066 193.265 325.013C192.308 325.951 191.153 326.685 189.799 327.217C188.456 327.739 186.962 328 185.319 328H177.112V306.873H185.319C186.962 306.873 188.456 307.139 189.799 307.671C191.153 308.203 192.308 308.937 193.265 309.875C194.222 310.813 194.961 311.929 195.483 313.224C196.015 314.51 196.281 315.912 196.281 317.429ZM191.264 317.429C191.264 316.385 191.129 315.443 190.858 314.602C190.587 313.761 190.196 313.05 189.683 312.47C189.181 311.881 188.562 311.431 187.827 311.122C187.093 310.803 186.257 310.643 185.319 310.643H182.042V324.23H185.319C186.257 324.23 187.093 324.075 187.827 323.766C188.562 323.447 189.181 322.997 189.683 322.417C190.196 321.828 190.587 321.112 190.858 320.271C191.129 319.43 191.264 318.483 191.264 317.429ZM204.103 328H199.173V306.873H204.103V328ZM223.361 310.759H217.416V328H212.515V310.759H206.57V306.873H223.361V310.759ZM230.781 328H225.851V306.873H230.781V328ZM255.592 317.429C255.592 318.957 255.326 320.378 254.795 321.692C254.273 323.007 253.533 324.153 252.576 325.129C251.619 326.096 250.464 326.854 249.111 327.405C247.767 327.957 246.273 328.232 244.63 328.232C242.987 328.232 241.488 327.957 240.135 327.405C238.782 326.854 237.622 326.096 236.655 325.129C235.698 324.153 234.954 323.007 234.422 321.692C233.9 320.378 233.639 318.957 233.639 317.429C233.639 315.902 233.9 314.481 234.422 313.166C234.954 311.852 235.698 310.711 236.655 309.744C237.622 308.778 238.782 308.019 240.135 307.468C241.488 306.917 242.987 306.641 244.63 306.641C246.273 306.641 247.767 306.922 249.111 307.482C250.464 308.033 251.619 308.792 252.576 309.759C253.533 310.726 254.273 311.866 254.795 313.181C255.326 314.496 255.592 315.912 255.592 317.429ZM250.575 317.429C250.575 316.385 250.44 315.448 250.169 314.616C249.898 313.775 249.507 313.065 248.995 312.485C248.492 311.905 247.873 311.46 247.139 311.151C246.404 310.842 245.568 310.687 244.63 310.687C243.683 310.687 242.837 310.842 242.093 311.151C241.358 311.46 240.734 311.905 240.222 312.485C239.719 313.065 239.333 313.775 239.062 314.616C238.791 315.448 238.656 316.385 238.656 317.429C238.656 318.483 238.791 319.43 239.062 320.271C239.333 321.103 239.719 321.808 240.222 322.388C240.734 322.968 241.358 323.413 242.093 323.722C242.837 324.022 243.683 324.172 244.63 324.172C245.568 324.172 246.404 324.022 247.139 323.722C247.873 323.413 248.492 322.968 248.995 322.388C249.507 321.808 249.898 321.103 250.169 320.271C250.44 319.43 250.575 318.483 250.575 317.429ZM276.92 306.873V328H274.368C273.991 328 273.672 327.942 273.411 327.826C273.16 327.7 272.908 327.488 272.657 327.188L262.696 314.587C262.734 314.964 262.758 315.332 262.768 315.689C262.787 316.037 262.797 316.366 262.797 316.675V328H258.476V306.873H261.057C261.27 306.873 261.449 306.883 261.594 306.902C261.739 306.922 261.869 306.96 261.985 307.018C262.101 307.067 262.212 307.139 262.319 307.236C262.425 307.333 262.546 307.463 262.681 307.627L272.73 320.315C272.681 319.909 272.647 319.517 272.628 319.14C272.609 318.754 272.599 318.391 272.599 318.053V306.873H276.92ZM285.949 328H281.019V306.873H285.949V328ZM308.469 306.873V328H305.917C305.54 328 305.221 327.942 304.96 327.826C304.709 327.7 304.457 327.488 304.206 327.188L294.244 314.587C294.283 314.964 294.307 315.332 294.317 315.689C294.336 316.037 294.346 316.366 294.346 316.675V328H290.025V306.873H292.606C292.819 306.873 292.997 306.883 293.142 306.902C293.287 306.922 293.418 306.96 293.534 307.018C293.65 307.067 293.761 307.139 293.867 307.236C293.974 307.333 294.095 307.463 294.23 307.627L304.278 320.315C304.23 319.909 304.196 319.517 304.177 319.14C304.158 318.754 304.148 318.391 304.148 318.053V306.873H308.469ZM322.718 317.052H330.229V325.97C329.146 326.763 327.991 327.338 326.763 327.695C325.545 328.053 324.269 328.232 322.935 328.232C321.195 328.232 319.61 327.961 318.179 327.42C316.758 326.869 315.54 326.115 314.525 325.158C313.51 324.191 312.727 323.051 312.176 321.736C311.625 320.412 311.35 318.976 311.35 317.429C311.35 315.854 311.611 314.409 312.133 313.094C312.655 311.77 313.399 310.629 314.366 309.672C315.342 308.715 316.517 307.971 317.889 307.439C319.272 306.907 320.814 306.641 322.515 306.641C323.395 306.641 324.221 306.714 324.994 306.859C325.768 307.004 326.478 307.202 327.126 307.453C327.783 307.705 328.383 308.004 328.924 308.352C329.465 308.7 329.949 309.077 330.374 309.483L328.953 311.644C328.731 311.982 328.441 312.19 328.083 312.267C327.735 312.345 327.358 312.258 326.952 312.006C326.565 311.774 326.198 311.576 325.85 311.412C325.512 311.238 325.164 311.098 324.806 310.991C324.448 310.885 324.071 310.808 323.675 310.759C323.279 310.711 322.834 310.687 322.341 310.687C321.423 310.687 320.596 310.851 319.861 311.18C319.127 311.499 318.498 311.953 317.976 312.543C317.464 313.133 317.068 313.843 316.787 314.674C316.507 315.496 316.367 316.414 316.367 317.429C316.367 318.551 316.522 319.546 316.831 320.416C317.14 321.286 317.575 322.021 318.136 322.62C318.706 323.22 319.383 323.679 320.166 323.998C320.959 324.307 321.833 324.462 322.79 324.462C323.38 324.462 323.912 324.404 324.385 324.288C324.869 324.172 325.338 324.017 325.792 323.824V320.619H323.704C323.395 320.619 323.153 320.537 322.979 320.373C322.805 320.209 322.718 320.001 322.718 319.749V317.052ZM351.909 311.165C351.764 311.397 351.61 311.571 351.445 311.688C351.291 311.803 351.088 311.861 350.836 311.861C350.614 311.861 350.372 311.794 350.111 311.658C349.86 311.513 349.57 311.354 349.241 311.18C348.922 311.006 348.555 310.851 348.139 310.716C347.724 310.571 347.25 310.498 346.718 310.498C345.8 310.498 345.114 310.697 344.659 311.093C344.215 311.48 343.992 312.006 343.992 312.673C343.992 313.099 344.128 313.452 344.398 313.732C344.669 314.012 345.022 314.254 345.457 314.457C345.902 314.66 346.404 314.848 346.965 315.022C347.535 315.187 348.115 315.375 348.705 315.588C349.295 315.791 349.87 316.033 350.43 316.313C351.001 316.593 351.503 316.951 351.938 317.386C352.383 317.821 352.741 318.353 353.011 318.981C353.282 319.6 353.417 320.349 353.417 321.228C353.417 322.205 353.248 323.118 352.91 323.969C352.572 324.82 352.079 325.564 351.431 326.202C350.793 326.83 350 327.328 349.053 327.695C348.115 328.053 347.047 328.232 345.848 328.232C345.191 328.232 344.519 328.164 343.833 328.029C343.156 327.894 342.499 327.705 341.861 327.463C341.223 327.212 340.624 326.917 340.063 326.579C339.502 326.241 339.014 325.864 338.598 325.448L340.048 323.157C340.164 322.993 340.314 322.857 340.498 322.751C340.691 322.635 340.899 322.577 341.121 322.577C341.411 322.577 341.701 322.669 341.991 322.852C342.291 323.036 342.625 323.239 342.992 323.461C343.369 323.684 343.799 323.887 344.282 324.07C344.766 324.254 345.336 324.346 345.993 324.346C346.883 324.346 347.574 324.153 348.067 323.766C348.56 323.37 348.806 322.746 348.806 321.895C348.806 321.402 348.671 321.001 348.4 320.692C348.13 320.383 347.772 320.126 347.327 319.923C346.892 319.72 346.395 319.542 345.834 319.387C345.273 319.232 344.698 319.063 344.108 318.879C343.519 318.686 342.944 318.454 342.383 318.183C341.822 317.903 341.32 317.541 340.875 317.096C340.44 316.642 340.087 316.081 339.816 315.414C339.546 314.737 339.41 313.906 339.41 312.92C339.41 312.127 339.57 311.354 339.889 310.6C340.208 309.846 340.677 309.174 341.295 308.584C341.914 307.995 342.673 307.526 343.572 307.178C344.471 306.82 345.5 306.641 346.66 306.641C347.308 306.641 347.936 306.695 348.545 306.801C349.164 306.898 349.749 307.047 350.3 307.25C350.851 307.444 351.363 307.681 351.837 307.961C352.32 308.232 352.75 308.541 353.127 308.889L351.909 311.165ZM361.225 310.643V315.573H367.866V319.198H361.225V324.23H369.895V328H356.295V306.873H369.895V310.643H361.225ZM379.792 316.806C380.459 316.806 381.024 316.724 381.488 316.559C381.962 316.385 382.348 316.149 382.648 315.849C382.948 315.549 383.165 315.201 383.301 314.805C383.436 314.399 383.504 313.964 383.504 313.5C383.504 312.572 383.199 311.847 382.59 311.325C381.991 310.803 381.058 310.542 379.792 310.542H377.82V316.806H379.792ZM390.203 328H385.766C384.944 328 384.354 327.691 383.997 327.072L380.488 320.938C380.323 320.677 380.14 320.489 379.937 320.373C379.734 320.247 379.444 320.184 379.067 320.184H377.82V328H372.919V306.873H379.792C381.319 306.873 382.619 307.033 383.692 307.352C384.775 307.661 385.654 308.096 386.331 308.657C387.017 309.218 387.515 309.88 387.825 310.643C388.134 311.407 388.289 312.238 388.289 313.137C388.289 313.824 388.197 314.471 388.013 315.08C387.829 315.689 387.559 316.255 387.201 316.777C386.843 317.289 386.399 317.748 385.867 318.154C385.345 318.56 384.741 318.894 384.055 319.155C384.374 319.319 384.673 319.527 384.954 319.778C385.234 320.02 385.485 320.31 385.708 320.648L390.203 328ZM410.165 306.873L401.697 328H397.26L388.792 306.873H392.736C393.161 306.873 393.504 306.975 393.765 307.178C394.026 307.371 394.225 307.623 394.36 307.932L398.449 319.242C398.642 319.735 398.831 320.276 399.014 320.866C399.198 321.446 399.372 322.055 399.536 322.693C399.672 322.055 399.822 321.446 399.986 320.866C400.16 320.276 400.344 319.735 400.537 319.242L404.597 307.932C404.703 307.661 404.892 307.42 405.162 307.207C405.443 306.985 405.786 306.873 406.192 306.873H410.165ZM416.761 328H411.831V306.873H416.761V328ZM435.075 322.533C435.191 322.533 435.307 322.558 435.423 322.606C435.539 322.645 435.651 322.717 435.757 322.823L437.7 324.868C436.849 325.98 435.781 326.821 434.495 327.391C433.219 327.952 431.707 328.232 429.957 328.232C428.352 328.232 426.912 327.961 425.636 327.42C424.37 326.869 423.292 326.115 422.402 325.158C421.523 324.191 420.846 323.051 420.372 321.736C419.899 320.412 419.662 318.976 419.662 317.429C419.662 315.854 419.918 314.409 420.43 313.094C420.943 311.77 421.663 310.629 422.591 309.672C423.519 308.715 424.631 307.971 425.926 307.439C427.221 306.907 428.647 306.641 430.203 306.641C430.996 306.641 431.74 306.714 432.436 306.859C433.142 306.994 433.799 307.188 434.408 307.439C435.017 307.681 435.578 307.975 436.09 308.323C436.603 308.671 437.057 309.048 437.453 309.454L435.8 311.673C435.694 311.808 435.568 311.934 435.423 312.05C435.278 312.156 435.075 312.209 434.814 312.209C434.64 312.209 434.476 312.171 434.321 312.093C434.167 312.016 434.002 311.924 433.828 311.818C433.654 311.702 433.461 311.581 433.248 311.455C433.045 311.32 432.799 311.199 432.509 311.093C432.229 310.977 431.895 310.88 431.508 310.803C431.131 310.726 430.687 310.687 430.174 310.687C429.362 310.687 428.618 310.837 427.941 311.136C427.274 311.436 426.694 311.876 426.201 312.456C425.718 313.026 425.341 313.732 425.07 314.573C424.809 315.404 424.679 316.356 424.679 317.429C424.679 318.512 424.824 319.474 425.114 320.315C425.414 321.156 425.815 321.866 426.317 322.446C426.83 323.017 427.424 323.452 428.101 323.751C428.778 324.051 429.503 324.201 430.276 324.201C430.721 324.201 431.127 324.182 431.494 324.143C431.861 324.095 432.204 324.022 432.523 323.925C432.842 323.819 433.142 323.684 433.422 323.519C433.703 323.345 433.988 323.128 434.278 322.867C434.394 322.77 434.52 322.693 434.655 322.635C434.79 322.567 434.93 322.533 435.075 322.533ZM444.769 310.643V315.573H451.41V319.198H444.769V324.23H453.44V328H439.839V306.873H453.44V310.643H444.769ZM468.136 311.165C467.991 311.397 467.836 311.571 467.672 311.688C467.517 311.803 467.314 311.861 467.063 311.861C466.841 311.861 466.599 311.794 466.338 311.658C466.087 311.513 465.797 311.354 465.468 311.18C465.149 311.006 464.782 310.851 464.366 310.716C463.95 310.571 463.477 310.498 462.945 310.498C462.027 310.498 461.34 310.697 460.886 311.093C460.441 311.48 460.219 312.006 460.219 312.673C460.219 313.099 460.354 313.452 460.625 313.732C460.896 314.012 461.248 314.254 461.683 314.457C462.128 314.66 462.631 314.848 463.191 315.022C463.762 315.187 464.342 315.375 464.931 315.588C465.521 315.791 466.096 316.033 466.657 316.313C467.227 316.593 467.73 316.951 468.165 317.386C468.61 317.821 468.967 318.353 469.238 318.981C469.509 319.6 469.644 320.349 469.644 321.228C469.644 322.205 469.475 323.118 469.136 323.969C468.798 324.82 468.305 325.564 467.657 326.202C467.019 326.83 466.227 327.328 465.279 327.695C464.342 328.053 463.274 328.232 462.075 328.232C461.418 328.232 460.746 328.164 460.059 328.029C459.383 327.894 458.725 327.705 458.087 327.463C457.449 327.212 456.85 326.917 456.289 326.579C455.729 326.241 455.241 325.864 454.825 325.448L456.275 323.157C456.391 322.993 456.541 322.857 456.724 322.751C456.918 322.635 457.126 322.577 457.348 322.577C457.638 322.577 457.928 322.669 458.218 322.852C458.518 323.036 458.851 323.239 459.218 323.461C459.595 323.684 460.026 323.887 460.509 324.07C460.992 324.254 461.563 324.346 462.22 324.346C463.109 324.346 463.8 324.153 464.293 323.766C464.786 323.37 465.033 322.746 465.033 321.895C465.033 321.402 464.898 321.001 464.627 320.692C464.356 320.383 463.999 320.126 463.554 319.923C463.119 319.72 462.621 319.542 462.06 319.387C461.5 319.232 460.925 319.063 460.335 318.879C459.745 318.686 459.17 318.454 458.609 318.183C458.049 317.903 457.546 317.541 457.101 317.096C456.666 316.642 456.314 316.081 456.043 315.414C455.772 314.737 455.637 313.906 455.637 312.92C455.637 312.127 455.796 311.354 456.115 310.6C456.434 309.846 456.903 309.174 457.522 308.584C458.141 307.995 458.899 307.526 459.798 307.178C460.697 306.82 461.727 306.641 462.887 306.641C463.535 306.641 464.163 306.695 464.772 306.801C465.391 306.898 465.975 307.047 466.526 307.25C467.077 307.444 467.59 307.681 468.063 307.961C468.547 308.232 468.977 308.541 469.354 308.889L468.136 311.165Z" fill="#767676"/>
<path d="M38.7997 291H25.0027L22.5207 280.488C22.4234 280.099 22.253 279.442 22.0097 278.517C21.815 277.544 21.5717 276.838 21.2797 276.4C20.9877 275.913 20.574 275.597 20.0387 275.451C18.676 275.5 16.6807 275.524 14.0527 275.524V291H0.912695V249.755C6.80136 249.317 12.3007 249.098 17.4107 249.098C22.034 249.098 25.7814 249.487 28.6527 250.266C31.524 250.996 33.6654 252.286 35.0767 254.135C36.5367 255.936 37.2667 258.418 37.2667 261.581C37.2667 264.55 36.5854 266.886 35.2227 268.589C33.86 270.244 31.67 271.241 28.6527 271.582V272.02C30.356 272.166 31.7674 272.726 32.8867 273.699C34.0547 274.624 34.8334 275.816 35.2227 277.276L38.7997 291ZM14.0527 267.275C14.4907 267.324 15.3424 267.348 16.6077 267.348C20.355 267.348 22.545 267.032 23.1777 266.399C23.7617 265.815 24.0537 264.452 24.0537 262.311C24.0537 260.316 23.5184 258.953 22.4477 258.223C21.4257 257.493 19.7224 257.128 17.3377 257.128C16.8024 257.128 15.7074 257.177 14.0527 257.274V267.275ZM42.8934 249.39H73.1884V258.15H56.0334V265.742H70.4874V273.626H56.0334V282.094H73.1154V291H42.8934V249.39ZM78.6144 249.39H108.471V258.442H91.7544V266.691H105.551V274.648H91.7544V291H78.6144V249.39ZM150.795 291H136.998L134.516 280.488C134.418 280.099 134.248 279.442 134.005 278.517C133.81 277.544 133.567 276.838 133.275 276.4C132.983 275.913 132.569 275.597 132.034 275.451C130.671 275.5 128.676 275.524 126.048 275.524V291H112.908V249.755C118.796 249.317 124.296 249.098 129.406 249.098C134.029 249.098 137.776 249.487 140.648 250.266C143.519 250.996 145.66 252.286 147.072 254.135C148.532 255.936 149.262 258.418 149.262 261.581C149.262 264.55 148.58 266.886 147.218 268.589C145.855 270.244 143.665 271.241 140.648 271.582V272.02C142.351 272.166 143.762 272.726 144.882 273.699C146.05 274.624 146.828 275.816 147.218 277.276L150.795 291ZM126.048 267.275C126.486 267.324 127.337 267.348 128.603 267.348C132.35 267.348 134.54 267.032 135.173 266.399C135.757 265.815 136.049 264.452 136.049 262.311C136.049 260.316 135.513 258.953 134.443 258.223C133.421 257.493 131.717 257.128 129.333 257.128C128.797 257.128 127.702 257.177 126.048 257.274V267.275ZM155.327 249.39H168.467V291H155.327V249.39ZM212.21 267.932V288.737C208.949 289.808 205.859 290.586 202.939 291.073C200.019 291.56 197.561 291.803 195.566 291.803C188.947 291.803 183.764 290.075 180.017 286.62C176.27 283.165 174.396 277.86 174.396 270.706C174.396 263.406 176.367 257.955 180.309 254.354C184.251 250.704 189.799 248.879 196.953 248.879C200.7 248.879 205.202 249.439 210.458 250.558C210.458 251.531 210.361 252.991 210.166 254.938C209.971 256.836 209.777 258.174 209.582 258.953L206.954 258.88C203.742 258.783 201.236 258.734 199.435 258.734C194.033 258.734 191.089 259.05 190.602 259.683C189.823 260.608 189.264 262.043 188.923 263.99C188.631 265.937 188.485 267.81 188.485 269.611C188.485 272.872 188.85 275.402 189.58 277.203C190.31 279.004 191.429 280.269 192.938 280.999C194.447 281.729 196.491 282.094 199.07 282.094H199.362V267.932H212.21ZM218.051 249.39H248.346V258.15H231.191V265.742H245.645V273.626H231.191V282.094H248.273V291H218.051V249.39ZM291.805 291H278.008L275.526 280.488C275.428 280.099 275.258 279.442 275.015 278.517C274.82 277.544 274.577 276.838 274.285 276.4C273.993 275.913 273.579 275.597 273.044 275.451C271.681 275.5 269.686 275.524 267.058 275.524V291H253.918V249.755C259.806 249.317 265.306 249.098 270.416 249.098C275.039 249.098 278.786 249.487 281.658 250.266C284.529 250.996 286.67 252.286 288.082 254.135C289.542 255.936 290.272 258.418 290.272 261.581C290.272 264.55 289.59 266.886 288.228 268.589C286.865 270.244 284.675 271.241 281.658 271.582V272.02C283.361 272.166 284.772 272.726 285.892 273.699C287.06 274.624 287.838 275.816 288.228 277.276L291.805 291ZM267.058 267.275C267.496 267.324 268.347 267.348 269.613 267.348C273.36 267.348 275.55 267.032 276.183 266.399C276.767 265.815 277.059 264.452 277.059 262.311C277.059 260.316 276.523 258.953 275.453 258.223C274.431 257.493 272.727 257.128 270.343 257.128C269.807 257.128 268.712 257.177 267.058 257.274V267.275ZM320.353 281.875H308.235L306.045 291H292.613L306.045 249.39H323.2L336.048 291H322.543L320.353 281.875ZM314.221 258.369L309.914 273.772H318.601L314.513 258.369H314.221ZM358.226 291H345.086V258.515H333.333V249.39H369.979V258.515H358.226V291ZM374.255 249.39H387.395V291H374.255V249.39ZM415.079 291.949C407.827 291.949 402.377 290.246 398.727 286.839C395.125 283.384 393.325 277.86 393.325 270.268C393.325 262.822 395.32 257.396 399.311 253.989C403.301 250.582 408.582 248.879 415.152 248.879C428.973 248.879 435.884 255.765 435.884 269.538C435.884 276.497 434.18 281.972 430.774 285.963C427.416 289.954 422.184 291.949 415.079 291.949ZM414.787 283.335C416.149 283.335 417.293 283.116 418.218 282.678C419.142 282.191 419.872 281.364 420.408 280.196C421.43 278.201 421.941 274.94 421.941 270.414C421.941 265.985 421.43 262.773 420.408 260.778C419.386 258.734 417.512 257.663 414.787 257.566C413.765 257.566 412.694 257.688 411.575 257.931C410.504 258.126 409.823 258.418 409.531 258.807C408.947 259.488 408.484 260.948 408.144 263.187C407.852 265.377 407.706 267.786 407.706 270.414C407.706 274.502 408.095 277.495 408.874 279.393C409.409 280.804 410.163 281.826 411.137 282.459C412.11 283.043 413.327 283.335 414.787 283.335ZM453.884 274.21V291H441.693V249.39H454.03L465.053 266.18C466.708 268.662 467.973 270.755 468.849 272.458H469.068V265.45V249.39H481.186V291H468.776L457.461 273.48L454.176 268.516H453.957L453.884 274.21Z" fill="#3443A0"/>
<path d="M8.504 192.39H38.361V201.442H21.644V209.691H35.441V217.648H21.644V234H8.504V192.39ZM48.9295 234.584C46.9341 234.584 45.2795 233.927 43.9655 232.613C42.7001 231.299 42.0675 229.523 42.0675 227.284C42.0675 225.337 42.7245 223.707 44.0385 222.393C45.4011 221.03 47.1045 220.349 49.1485 220.349C51.0951 220.349 52.7255 221.03 54.0395 222.393C55.3535 223.707 56.0105 225.337 56.0105 227.284C56.0105 229.523 55.3535 231.299 54.0395 232.613C52.7741 233.927 51.0708 234.584 48.9295 234.584ZM90.3843 192.171C94.3263 192.171 97.66 192.536 100.385 193.266C103.111 193.996 105.276 195.407 106.882 197.5C108.537 199.544 109.364 202.488 109.364 206.333C109.364 208.036 109.097 209.788 108.561 211.589C108.075 213.341 107.442 214.874 106.663 216.188C105.933 217.502 105.276 218.354 104.692 218.743C104.011 219.23 102.502 219.619 100.166 219.911C97.8303 220.154 95.0807 220.276 91.9173 220.276C90.798 220.276 89.0703 220.227 86.7343 220.13V234H73.5943V192.39C78.7043 192.244 84.301 192.171 90.3843 192.171ZM95.8593 210.932C96.346 210.299 96.5893 209.034 96.5893 207.136C96.5893 204.654 96.054 202.902 94.9833 201.88C93.9613 200.858 92.1607 200.347 89.5813 200.347C88.7053 200.347 87.7563 200.42 86.7343 200.566V211.662C87.221 211.711 88.17 211.735 89.5813 211.735C93.3287 211.735 95.4213 211.467 95.8593 210.932ZM137.178 224.875H125.06L122.87 234H109.438L122.87 192.39H140.025L152.873 234H139.368L137.178 224.875ZM131.046 201.369L126.739 216.772H135.426L131.338 201.369H131.046ZM210.159 234H197.895L196.946 211.078C196.8 206.552 196.629 203.121 196.435 200.785H196.216C195.632 202.634 194.95 205.506 194.172 209.399L193.807 211.224L188.77 234H176.506L172.272 213.487L171.542 209.837C170.52 205.311 169.814 202.294 169.425 200.785H169.206C169.011 203.218 168.841 207.185 168.695 212.684C168.646 213.025 168.622 213.56 168.622 214.29L167.965 234H155.628L157.38 192.39H178.258L181.835 210.348L182.711 215.166C183.1 213.657 183.465 211.978 183.806 210.129L187.164 192.39H208.48L210.159 234ZM233.39 192.171C237.332 192.171 240.666 192.536 243.391 193.266C246.117 193.996 248.282 195.407 249.888 197.5C251.543 199.544 252.37 202.488 252.37 206.333C252.37 208.036 252.103 209.788 251.567 211.589C251.081 213.341 250.448 214.874 249.669 216.188C248.939 217.502 248.282 218.354 247.698 218.743C247.017 219.23 245.508 219.619 243.172 219.911C240.836 220.154 238.087 220.276 234.923 220.276C233.804 220.276 232.076 220.227 229.74 220.13V234H216.6V192.39C221.71 192.244 227.307 192.171 233.39 192.171ZM238.865 210.932C239.352 210.299 239.595 209.034 239.595 207.136C239.595 204.654 239.06 202.902 237.989 201.88C236.967 200.858 235.167 200.347 232.587 200.347C231.711 200.347 230.762 200.42 229.74 200.566V211.662C230.227 211.711 231.176 211.735 232.587 211.735C236.335 211.735 238.427 211.467 238.865 210.932ZM256.875 192.39H270.015V224.364H287.024V234H256.875V192.39ZM312.033 234.949C304.782 234.949 299.331 233.246 295.681 229.839C292.08 226.384 290.279 220.86 290.279 213.268C290.279 205.822 292.274 200.396 296.265 196.989C300.256 193.582 305.536 191.879 312.106 191.879C325.927 191.879 332.838 198.765 332.838 212.538C332.838 219.497 331.135 224.972 327.728 228.963C324.37 232.954 319.138 234.949 312.033 234.949ZM311.741 226.335C313.104 226.335 314.247 226.116 315.172 225.678C316.097 225.191 316.827 224.364 317.362 223.196C318.384 221.201 318.895 217.94 318.895 213.414C318.895 208.985 318.384 205.773 317.362 203.778C316.34 201.734 314.466 200.663 311.741 200.566C310.719 200.566 309.648 200.688 308.529 200.931C307.458 201.126 306.777 201.418 306.485 201.807C305.901 202.488 305.439 203.948 305.098 206.187C304.806 208.377 304.66 210.786 304.66 213.414C304.66 217.502 305.049 220.495 305.828 222.393C306.363 223.804 307.118 224.826 308.091 225.459C309.064 226.043 310.281 226.335 311.741 226.335ZM350.838 217.21V234H338.647V192.39H350.984L362.007 209.18C363.662 211.662 364.927 213.755 365.803 215.458H366.022V208.45V192.39H378.14V234H365.73L354.415 216.48L351.13 211.516H350.911L350.838 217.21ZM409.431 224.875H397.313L395.123 234H381.691L395.123 192.39H412.278L425.126 234H411.621L409.431 224.875ZM403.299 201.369L398.992 216.772H407.679L403.591 201.369H403.299ZM425.836 205.457C427.004 201.856 427.637 196.673 427.734 189.908C428.075 189.859 428.61 189.835 429.34 189.835C430.606 189.835 431.847 190.005 433.063 190.346C434.28 190.687 435.326 191.198 436.202 191.879C435.959 194.312 435.472 197.013 434.742 199.982C434.012 202.951 432.966 205.262 431.603 206.917C430.679 206.966 429.657 206.844 428.537 206.552C427.467 206.26 426.566 205.895 425.836 205.457ZM453.988 203.632C453.988 204.654 454.499 205.457 455.521 206.041C456.592 206.625 458.247 207.258 460.485 207.939C463.162 208.815 465.352 209.667 467.055 210.494C468.807 211.321 470.316 212.611 471.581 214.363C472.895 216.115 473.552 218.402 473.552 221.225C473.552 230.277 467.664 234.803 455.886 234.803C453.94 234.803 451.555 234.633 448.732 234.292C445.958 233.951 443.428 233.513 441.14 232.978C441.238 231.956 441.432 230.472 441.724 228.525C442.065 226.53 442.381 225.045 442.673 224.072C444.377 224.315 446.932 224.607 450.338 224.948C453.794 225.289 456.397 225.459 458.149 225.459C459.171 225.459 459.78 225.386 459.974 225.24C460.266 225.045 460.485 224.729 460.631 224.291C460.826 223.804 460.923 223.391 460.923 223.05C460.923 222.077 460.461 221.347 459.536 220.86C458.612 220.325 457.03 219.692 454.791 218.962C452.115 218.135 449.9 217.283 448.148 216.407C446.396 215.531 444.863 214.168 443.549 212.319C442.235 210.47 441.578 208.036 441.578 205.019C441.578 202.878 442.065 200.785 443.038 198.741C444.012 196.648 445.009 195.237 446.031 194.507C446.81 193.972 448.416 193.461 450.849 192.974C453.283 192.487 455.57 192.244 457.711 192.244C463.162 192.244 467.615 192.755 471.07 193.777C471.022 194.75 470.851 196.089 470.559 197.792C470.316 199.495 470.048 201.053 469.756 202.464L468.077 202.391C461.751 201.953 457.711 201.734 455.959 201.734C455.229 201.734 454.816 201.758 454.718 201.807C454.524 201.904 454.353 202.123 454.207 202.464C454.061 202.805 453.988 203.194 453.988 203.632Z" fill="#FC6030"/>
<path d="M91.5 11C91.5 7.41015 94.4101 4.5 98 4.5H382C387.247 4.5 391.5 8.75329 391.5 14V81C391.5 95.0833 380.083 106.5 366 106.5H117C102.917 106.5 91.5 95.0833 91.5 81V11Z" fill="white" stroke="#3443A0" stroke-width="9"/>
<path d="M93 73L391 73" stroke="#3443A0" stroke-width="5"/>
<mask id="path-6-inside-1_13_44" fill="white">
<path d="M122 91C122 87.6863 124.686 85 128 85H353C356.314 85 359 87.6863 359 91V103H122V91Z"/>
</mask>
<path d="M117 91C117 84.9249 121.925 80 128 80H353C359.075 80 364 84.9249 364 91H354C354 90.4477 353.552 90 353 90H128C127.448 90 127 90.4477 127 91H117ZM364 111H117L127 95H354L364 111ZM117 111V91C117 84.9249 121.925 80 128 80V90C127.448 90 127 90.4477 127 91V95L117 111ZM353 80C359.075 80 364 84.9249 364 91V111L354 95V91C354 90.4477 353.552 90 353 90V80Z" fill="#3443A0" mask="url(#path-6-inside-1_13_44)"/>
<path d="M106 54H120" stroke="#FC6030" stroke-width="10" stroke-linecap="round"/>
<path d="M104.942 128.321L116.933 121.094" stroke="#FC6030" stroke-width="6" stroke-linecap="round"/>
<path d="M365.696 121.561L378.294 127.666" stroke="#FC6030" stroke-width="6" stroke-linecap="round"/>
<path d="M121.69 146.133L130.301 135.094" stroke="#FC6030" stroke-width="6" stroke-linecap="round"/>
<path d="M360.638 146.018L351.973 135.021" stroke="#FC6030" stroke-width="6" stroke-linecap="round"/>
<path d="M153 163C165.5 145.5 145.5 137 155.5 122" stroke="#FC6030" stroke-width="9" stroke-linecap="round"/>
<path d="M185.411 163C199 145 178.5 136.5 188.5 122.5" stroke="#FC6030" stroke-width="9" stroke-linecap="round"/>
<path d="M219 162.5C232.589 144.5 212.089 136 222.089 122" stroke="#FC6030" stroke-width="9" stroke-linecap="round"/>
<path d="M256 162.5C269.589 144.5 249.089 136 259.089 122" stroke="#FC6030" stroke-width="9" stroke-linecap="round"/>
<path d="M290 162.5C303.589 144.5 283.089 136 293.089 122" stroke="#FC6030" stroke-width="9" stroke-linecap="round"/>
<path d="M324 162.5C337.589 144.5 317.089 136 327.089 122" stroke="#FC6030" stroke-width="9" stroke-linecap="round"/>
<path d="M213 42H269" stroke="#FC6030" stroke-width="12" stroke-linecap="round"/>
<circle cx="323" cy="57" r="6" fill="#FC6030"/>
<circle cx="347" cy="57" r="6" fill="#FC6030"/>
<circle cx="371" cy="57" r="6" fill="#FC6030"/>
</svg>
