<svg width="750" height="750" viewBox="0 0 750 750" fill="none" xmlns="http://www.w3.org/2000/svg">
<rect width="750" height="750" fill="white"/>
<path d="M159.902 526.633C159.37 527.078 158.993 527.556 158.771 528.068C158.549 528.571 158.438 529.108 158.438 529.678C158.438 530.142 158.505 530.562 158.641 530.939C158.786 531.316 158.989 531.64 159.25 531.911C159.511 532.182 159.82 532.394 160.178 532.549C160.545 532.694 160.951 532.766 161.396 532.766C162.043 532.766 162.647 532.684 163.208 532.52C163.769 532.346 164.291 532.104 164.774 531.795L159.902 526.633ZM174.359 536H169.922C169.699 536 169.501 535.99 169.327 535.971C169.153 535.942 168.989 535.898 168.834 535.84C168.689 535.782 168.549 535.7 168.414 535.594C168.278 535.488 168.133 535.352 167.978 535.188L167.065 534.231C166.147 534.869 165.141 535.362 164.049 535.71C162.966 536.058 161.811 536.232 160.584 536.232C159.743 536.232 158.916 536.087 158.104 535.797C157.302 535.507 156.586 535.096 155.958 534.564C155.33 534.023 154.822 533.371 154.436 532.607C154.049 531.843 153.856 530.988 153.856 530.04C153.856 529.402 153.952 528.798 154.146 528.228C154.349 527.658 154.629 527.131 154.987 526.647C155.354 526.154 155.784 525.71 156.277 525.313C156.77 524.907 157.316 524.555 157.916 524.255C157.452 523.549 157.118 522.858 156.915 522.181C156.712 521.505 156.611 520.847 156.611 520.209C156.611 519.455 156.746 518.745 157.017 518.078C157.297 517.401 157.698 516.812 158.22 516.309C158.752 515.797 159.399 515.391 160.163 515.091C160.936 514.791 161.821 514.641 162.817 514.641C163.754 514.641 164.581 514.782 165.296 515.062C166.011 515.333 166.616 515.695 167.109 516.149C167.602 516.594 167.988 517.111 168.269 517.701C168.549 518.291 168.723 518.895 168.791 519.513L165.891 520.093C165.378 520.209 165.001 520.006 164.76 519.484C164.537 518.982 164.276 518.6 163.977 518.339C163.687 518.078 163.3 517.947 162.817 517.947C162.478 517.947 162.183 518.01 161.932 518.136C161.681 518.262 161.468 518.426 161.294 518.629C161.13 518.832 161.004 519.069 160.917 519.339C160.83 519.61 160.787 519.89 160.787 520.18C160.787 520.432 160.806 520.673 160.845 520.905C160.893 521.128 160.97 521.36 161.077 521.601C161.183 521.833 161.323 522.075 161.497 522.326C161.681 522.578 161.908 522.853 162.179 523.153L167.399 528.648C167.66 528.078 167.872 527.479 168.037 526.85C168.201 526.212 168.307 525.56 168.356 524.893C168.385 524.622 168.476 524.41 168.631 524.255C168.786 524.1 168.994 524.023 169.255 524.023H172.097C172.097 525.425 171.908 526.739 171.531 527.967C171.154 529.195 170.622 530.316 169.936 531.331L174.359 536ZM193.199 527.923L191.241 522.138C191.096 521.771 190.942 521.34 190.777 520.847C190.613 520.345 190.449 519.803 190.284 519.223C190.139 519.813 189.985 520.359 189.82 520.862C189.656 521.365 189.501 521.8 189.356 522.167L187.413 527.923H193.199ZM200.985 536H197.186C196.761 536 196.418 535.903 196.157 535.71C195.896 535.507 195.698 535.251 195.562 534.941L194.315 531.258H186.282L185.035 534.941C184.929 535.212 184.736 535.459 184.455 535.681C184.185 535.894 183.846 536 183.44 536H179.612L187.79 514.873H192.807L200.985 536ZM207.581 536H202.651V514.873H207.581V536ZM218.53 524.806C219.197 524.806 219.762 524.724 220.226 524.559C220.7 524.385 221.087 524.149 221.386 523.849C221.686 523.549 221.903 523.201 222.039 522.805C222.174 522.399 222.242 521.964 222.242 521.5C222.242 520.572 221.937 519.847 221.328 519.325C220.729 518.803 219.796 518.542 218.53 518.542H216.558V524.806H218.53ZM228.941 536H224.504C223.682 536 223.092 535.691 222.735 535.072L219.226 528.938C219.061 528.677 218.878 528.489 218.675 528.373C218.472 528.247 218.182 528.184 217.805 528.184H216.558V536H211.657V514.873H218.53C220.057 514.873 221.357 515.033 222.43 515.352C223.513 515.661 224.393 516.096 225.069 516.657C225.756 517.218 226.253 517.88 226.563 518.643C226.872 519.407 227.027 520.238 227.027 521.137C227.027 521.824 226.935 522.471 226.751 523.08C226.568 523.689 226.297 524.255 225.939 524.777C225.582 525.289 225.137 525.748 224.605 526.154C224.083 526.56 223.479 526.894 222.793 527.155C223.112 527.319 223.411 527.527 223.692 527.778C223.972 528.02 224.223 528.31 224.446 528.648L228.941 536ZM251.667 530.533C251.783 530.533 251.899 530.558 252.015 530.606C252.131 530.645 252.242 530.717 252.349 530.823L254.292 532.868C253.441 533.98 252.373 534.821 251.087 535.391C249.811 535.952 248.298 536.232 246.549 536.232C244.944 536.232 243.504 535.961 242.228 535.42C240.961 534.869 239.884 534.115 238.994 533.158C238.115 532.191 237.438 531.051 236.964 529.736C236.491 528.412 236.254 526.976 236.254 525.429C236.254 523.854 236.51 522.409 237.022 521.094C237.535 519.77 238.255 518.629 239.183 517.672C240.111 516.715 241.222 515.971 242.518 515.439C243.813 514.907 245.239 514.641 246.795 514.641C247.588 514.641 248.332 514.714 249.028 514.859C249.734 514.994 250.391 515.188 251 515.439C251.609 515.681 252.17 515.975 252.682 516.323C253.195 516.671 253.649 517.048 254.045 517.454L252.392 519.673C252.286 519.808 252.16 519.934 252.015 520.05C251.87 520.156 251.667 520.209 251.406 520.209C251.232 520.209 251.068 520.171 250.913 520.093C250.759 520.016 250.594 519.924 250.42 519.818C250.246 519.702 250.053 519.581 249.84 519.455C249.637 519.32 249.391 519.199 249.101 519.093C248.82 518.977 248.487 518.88 248.1 518.803C247.723 518.726 247.279 518.687 246.766 518.687C245.954 518.687 245.21 518.837 244.533 519.136C243.866 519.436 243.286 519.876 242.793 520.456C242.31 521.026 241.933 521.732 241.662 522.573C241.401 523.404 241.271 524.356 241.271 525.429C241.271 526.512 241.416 527.474 241.706 528.315C242.005 529.156 242.407 529.866 242.909 530.446C243.422 531.017 244.016 531.452 244.693 531.751C245.369 532.051 246.094 532.201 246.868 532.201C247.312 532.201 247.718 532.182 248.086 532.143C248.453 532.095 248.796 532.022 249.115 531.925C249.434 531.819 249.734 531.684 250.014 531.519C250.295 531.345 250.58 531.128 250.87 530.867C250.986 530.77 251.111 530.693 251.247 530.635C251.382 530.567 251.522 530.533 251.667 530.533ZM276.685 525.429C276.685 526.957 276.419 528.378 275.887 529.692C275.365 531.007 274.626 532.153 273.669 533.129C272.712 534.096 271.557 534.854 270.203 535.405C268.86 535.957 267.366 536.232 265.723 536.232C264.079 536.232 262.581 535.957 261.228 535.405C259.874 534.854 258.714 534.096 257.748 533.129C256.791 532.153 256.046 531.007 255.515 529.692C254.993 528.378 254.732 526.957 254.732 525.429C254.732 523.902 254.993 522.481 255.515 521.166C256.046 519.852 256.791 518.711 257.748 517.744C258.714 516.778 259.874 516.019 261.228 515.468C262.581 514.917 264.079 514.641 265.723 514.641C267.366 514.641 268.86 514.922 270.203 515.482C271.557 516.033 272.712 516.792 273.669 517.759C274.626 518.726 275.365 519.866 275.887 521.181C276.419 522.496 276.685 523.912 276.685 525.429ZM271.668 525.429C271.668 524.385 271.532 523.448 271.262 522.616C270.991 521.775 270.6 521.065 270.087 520.485C269.585 519.905 268.966 519.46 268.231 519.151C267.497 518.842 266.66 518.687 265.723 518.687C264.775 518.687 263.93 518.842 263.185 519.151C262.451 519.46 261.827 519.905 261.315 520.485C260.812 521.065 260.425 521.775 260.155 522.616C259.884 523.448 259.749 524.385 259.749 525.429C259.749 526.483 259.884 527.43 260.155 528.271C260.425 529.103 260.812 529.808 261.315 530.388C261.827 530.968 262.451 531.413 263.185 531.722C263.93 532.022 264.775 532.172 265.723 532.172C266.66 532.172 267.497 532.022 268.231 531.722C268.966 531.413 269.585 530.968 270.087 530.388C270.6 529.808 270.991 529.103 271.262 528.271C271.532 527.43 271.668 526.483 271.668 525.429ZM298.013 514.873V536H295.461C295.084 536 294.765 535.942 294.504 535.826C294.253 535.7 294.001 535.488 293.75 535.188L283.788 522.587C283.827 522.964 283.851 523.332 283.861 523.689C283.88 524.037 283.89 524.366 283.89 524.675V536H279.569V514.873H282.15C282.363 514.873 282.541 514.883 282.686 514.902C282.831 514.922 282.962 514.96 283.078 515.018C283.194 515.067 283.305 515.139 283.411 515.236C283.518 515.333 283.639 515.463 283.774 515.627L293.822 528.315C293.774 527.909 293.74 527.517 293.721 527.14C293.702 526.754 293.692 526.391 293.692 526.053V514.873H298.013ZM321.281 525.429C321.281 526.957 321.015 528.368 320.483 529.663C319.961 530.949 319.222 532.066 318.265 533.013C317.308 533.951 316.153 534.685 314.799 535.217C313.456 535.739 311.962 536 310.319 536H302.112V514.873H310.319C311.962 514.873 313.456 515.139 314.799 515.671C316.153 516.203 317.308 516.937 318.265 517.875C319.222 518.813 319.961 519.929 320.483 521.224C321.015 522.51 321.281 523.912 321.281 525.429ZM316.264 525.429C316.264 524.385 316.129 523.443 315.858 522.602C315.587 521.761 315.196 521.05 314.683 520.47C314.181 519.881 313.562 519.431 312.827 519.122C312.093 518.803 311.257 518.643 310.319 518.643H307.042V532.23H310.319C311.257 532.23 312.093 532.075 312.827 531.766C313.562 531.447 314.181 530.997 314.683 530.417C315.196 529.828 315.587 529.112 315.858 528.271C316.129 527.43 316.264 526.483 316.264 525.429ZM329.103 536H324.173V514.873H329.103V536ZM348.361 518.759H342.416V536H337.515V518.759H331.57V514.873H348.361V518.759ZM355.781 536H350.851V514.873H355.781V536ZM380.592 525.429C380.592 526.957 380.326 528.378 379.795 529.692C379.273 531.007 378.533 532.153 377.576 533.129C376.619 534.096 375.464 534.854 374.111 535.405C372.767 535.957 371.273 536.232 369.63 536.232C367.987 536.232 366.488 535.957 365.135 535.405C363.782 534.854 362.622 534.096 361.655 533.129C360.698 532.153 359.954 531.007 359.422 529.692C358.9 528.378 358.639 526.957 358.639 525.429C358.639 523.902 358.9 522.481 359.422 521.166C359.954 519.852 360.698 518.711 361.655 517.744C362.622 516.778 363.782 516.019 365.135 515.468C366.488 514.917 367.987 514.641 369.63 514.641C371.273 514.641 372.767 514.922 374.111 515.482C375.464 516.033 376.619 516.792 377.576 517.759C378.533 518.726 379.273 519.866 379.795 521.181C380.326 522.496 380.592 523.912 380.592 525.429ZM375.575 525.429C375.575 524.385 375.44 523.448 375.169 522.616C374.898 521.775 374.507 521.065 373.995 520.485C373.492 519.905 372.873 519.46 372.139 519.151C371.404 518.842 370.568 518.687 369.63 518.687C368.683 518.687 367.837 518.842 367.093 519.151C366.358 519.46 365.734 519.905 365.222 520.485C364.719 521.065 364.333 521.775 364.062 522.616C363.791 523.448 363.656 524.385 363.656 525.429C363.656 526.483 363.791 527.43 364.062 528.271C364.333 529.103 364.719 529.808 365.222 530.388C365.734 530.968 366.358 531.413 367.093 531.722C367.837 532.022 368.683 532.172 369.63 532.172C370.568 532.172 371.404 532.022 372.139 531.722C372.873 531.413 373.492 530.968 373.995 530.388C374.507 529.808 374.898 529.103 375.169 528.271C375.44 527.43 375.575 526.483 375.575 525.429ZM401.92 514.873V536H399.368C398.991 536 398.672 535.942 398.411 535.826C398.16 535.7 397.908 535.488 397.657 535.188L387.696 522.587C387.734 522.964 387.758 523.332 387.768 523.689C387.787 524.037 387.797 524.366 387.797 524.675V536H383.476V514.873H386.057C386.27 514.873 386.449 514.883 386.594 514.902C386.739 514.922 386.869 514.96 386.985 515.018C387.101 515.067 387.212 515.139 387.319 515.236C387.425 515.333 387.546 515.463 387.681 515.627L397.73 528.315C397.681 527.909 397.647 527.517 397.628 527.14C397.609 526.754 397.599 526.391 397.599 526.053V514.873H401.92ZM410.949 536H406.019V514.873H410.949V536ZM433.469 514.873V536H430.917C430.54 536 430.221 535.942 429.96 535.826C429.709 535.7 429.457 535.488 429.206 535.188L419.244 522.587C419.283 522.964 419.307 523.332 419.317 523.689C419.336 524.037 419.346 524.366 419.346 524.675V536H415.025V514.873H417.606C417.819 514.873 417.997 514.883 418.142 514.902C418.287 514.922 418.418 514.96 418.534 515.018C418.65 515.067 418.761 515.139 418.867 515.236C418.974 515.333 419.095 515.463 419.23 515.627L429.278 528.315C429.23 527.909 429.196 527.517 429.177 527.14C429.158 526.754 429.148 526.391 429.148 526.053V514.873H433.469ZM447.718 525.052H455.229V533.97C454.146 534.763 452.991 535.338 451.763 535.695C450.545 536.053 449.269 536.232 447.935 536.232C446.195 536.232 444.61 535.961 443.179 535.42C441.758 534.869 440.54 534.115 439.525 533.158C438.51 532.191 437.727 531.051 437.176 529.736C436.625 528.412 436.35 526.976 436.35 525.429C436.35 523.854 436.611 522.409 437.133 521.094C437.655 519.77 438.399 518.629 439.366 517.672C440.342 516.715 441.517 515.971 442.889 515.439C444.272 514.907 445.814 514.641 447.515 514.641C448.395 514.641 449.221 514.714 449.994 514.859C450.768 515.004 451.478 515.202 452.126 515.453C452.783 515.705 453.383 516.004 453.924 516.352C454.465 516.7 454.949 517.077 455.374 517.483L453.953 519.644C453.731 519.982 453.441 520.19 453.083 520.267C452.735 520.345 452.358 520.258 451.952 520.006C451.565 519.774 451.198 519.576 450.85 519.412C450.512 519.238 450.164 519.098 449.806 518.991C449.448 518.885 449.071 518.808 448.675 518.759C448.279 518.711 447.834 518.687 447.341 518.687C446.423 518.687 445.596 518.851 444.861 519.18C444.127 519.499 443.498 519.953 442.976 520.543C442.464 521.133 442.068 521.843 441.787 522.674C441.507 523.496 441.367 524.414 441.367 525.429C441.367 526.551 441.522 527.546 441.831 528.416C442.14 529.286 442.575 530.021 443.136 530.62C443.706 531.22 444.383 531.679 445.166 531.998C445.959 532.307 446.833 532.462 447.79 532.462C448.38 532.462 448.912 532.404 449.385 532.288C449.869 532.172 450.338 532.017 450.792 531.824V528.619H448.704C448.395 528.619 448.153 528.537 447.979 528.373C447.805 528.209 447.718 528.001 447.718 527.749V525.052ZM476.909 519.165C476.764 519.397 476.61 519.571 476.445 519.688C476.291 519.803 476.088 519.861 475.836 519.861C475.614 519.861 475.372 519.794 475.111 519.658C474.86 519.513 474.57 519.354 474.241 519.18C473.922 519.006 473.555 518.851 473.139 518.716C472.724 518.571 472.25 518.498 471.718 518.498C470.8 518.498 470.114 518.697 469.659 519.093C469.215 519.48 468.992 520.006 468.992 520.673C468.992 521.099 469.128 521.452 469.398 521.732C469.669 522.012 470.022 522.254 470.457 522.457C470.902 522.66 471.404 522.848 471.965 523.022C472.535 523.187 473.115 523.375 473.705 523.588C474.295 523.791 474.87 524.033 475.43 524.313C476.001 524.593 476.503 524.951 476.938 525.386C477.383 525.821 477.741 526.353 478.011 526.981C478.282 527.6 478.417 528.349 478.417 529.228C478.417 530.205 478.248 531.118 477.91 531.969C477.572 532.82 477.079 533.564 476.431 534.202C475.793 534.83 475 535.328 474.053 535.695C473.115 536.053 472.047 536.232 470.848 536.232C470.191 536.232 469.519 536.164 468.833 536.029C468.156 535.894 467.499 535.705 466.861 535.463C466.223 535.212 465.624 534.917 465.063 534.579C464.502 534.241 464.014 533.864 463.598 533.448L465.048 531.157C465.164 530.993 465.314 530.857 465.498 530.751C465.691 530.635 465.899 530.577 466.121 530.577C466.411 530.577 466.701 530.669 466.991 530.852C467.291 531.036 467.625 531.239 467.992 531.461C468.369 531.684 468.799 531.887 469.282 532.07C469.766 532.254 470.336 532.346 470.993 532.346C471.883 532.346 472.574 532.153 473.067 531.766C473.56 531.37 473.806 530.746 473.806 529.895C473.806 529.402 473.671 529.001 473.4 528.692C473.13 528.383 472.772 528.126 472.327 527.923C471.892 527.72 471.395 527.542 470.834 527.387C470.273 527.232 469.698 527.063 469.108 526.879C468.519 526.686 467.944 526.454 467.383 526.183C466.822 525.903 466.32 525.541 465.875 525.096C465.44 524.642 465.087 524.081 464.816 523.414C464.546 522.737 464.41 521.906 464.41 520.92C464.41 520.127 464.57 519.354 464.889 518.6C465.208 517.846 465.677 517.174 466.295 516.584C466.914 515.995 467.673 515.526 468.572 515.178C469.471 514.82 470.5 514.641 471.66 514.641C472.308 514.641 472.936 514.695 473.545 514.801C474.164 514.898 474.749 515.047 475.3 515.25C475.851 515.444 476.363 515.681 476.837 515.961C477.32 516.232 477.75 516.541 478.127 516.889L476.909 519.165ZM486.225 518.643V523.573H492.866V527.198H486.225V532.23H494.895V536H481.295V514.873H494.895V518.643H486.225ZM504.792 524.806C505.459 524.806 506.024 524.724 506.488 524.559C506.962 524.385 507.348 524.149 507.648 523.849C507.948 523.549 508.165 523.201 508.301 522.805C508.436 522.399 508.504 521.964 508.504 521.5C508.504 520.572 508.199 519.847 507.59 519.325C506.991 518.803 506.058 518.542 504.792 518.542H502.82V524.806H504.792ZM515.203 536H510.766C509.944 536 509.354 535.691 508.997 535.072L505.488 528.938C505.323 528.677 505.14 528.489 504.937 528.373C504.734 528.247 504.444 528.184 504.067 528.184H502.82V536H497.919V514.873H504.792C506.319 514.873 507.619 515.033 508.692 515.352C509.775 515.661 510.654 516.096 511.331 516.657C512.017 517.218 512.515 517.88 512.825 518.643C513.134 519.407 513.289 520.238 513.289 521.137C513.289 521.824 513.197 522.471 513.013 523.08C512.829 523.689 512.559 524.255 512.201 524.777C511.843 525.289 511.399 525.748 510.867 526.154C510.345 526.56 509.741 526.894 509.055 527.155C509.374 527.319 509.673 527.527 509.954 527.778C510.234 528.02 510.485 528.31 510.708 528.648L515.203 536ZM535.165 514.873L526.697 536H522.26L513.792 514.873H517.736C518.161 514.873 518.504 514.975 518.765 515.178C519.026 515.371 519.225 515.623 519.36 515.932L523.449 527.242C523.642 527.735 523.831 528.276 524.014 528.866C524.198 529.446 524.372 530.055 524.536 530.693C524.672 530.055 524.822 529.446 524.986 528.866C525.16 528.276 525.344 527.735 525.537 527.242L529.597 515.932C529.703 515.661 529.892 515.42 530.162 515.207C530.443 514.985 530.786 514.873 531.192 514.873H535.165ZM541.761 536H536.831V514.873H541.761V536ZM560.075 530.533C560.191 530.533 560.307 530.558 560.423 530.606C560.539 530.645 560.651 530.717 560.757 530.823L562.7 532.868C561.849 533.98 560.781 534.821 559.495 535.391C558.219 535.952 556.707 536.232 554.957 536.232C553.352 536.232 551.912 535.961 550.636 535.42C549.37 534.869 548.292 534.115 547.402 533.158C546.523 532.191 545.846 531.051 545.372 529.736C544.899 528.412 544.662 526.976 544.662 525.429C544.662 523.854 544.918 522.409 545.43 521.094C545.943 519.77 546.663 518.629 547.591 517.672C548.519 516.715 549.631 515.971 550.926 515.439C552.221 514.907 553.647 514.641 555.203 514.641C555.996 514.641 556.74 514.714 557.436 514.859C558.142 514.994 558.799 515.188 559.408 515.439C560.017 515.681 560.578 515.975 561.09 516.323C561.603 516.671 562.057 517.048 562.453 517.454L560.8 519.673C560.694 519.808 560.568 519.934 560.423 520.05C560.278 520.156 560.075 520.209 559.814 520.209C559.64 520.209 559.476 520.171 559.321 520.093C559.167 520.016 559.002 519.924 558.828 519.818C558.654 519.702 558.461 519.581 558.248 519.455C558.045 519.32 557.799 519.199 557.509 519.093C557.229 518.977 556.895 518.88 556.508 518.803C556.131 518.726 555.687 518.687 555.174 518.687C554.362 518.687 553.618 518.837 552.941 519.136C552.274 519.436 551.694 519.876 551.201 520.456C550.718 521.026 550.341 521.732 550.07 522.573C549.809 523.404 549.679 524.356 549.679 525.429C549.679 526.512 549.824 527.474 550.114 528.315C550.414 529.156 550.815 529.866 551.317 530.446C551.83 531.017 552.424 531.452 553.101 531.751C553.778 532.051 554.503 532.201 555.276 532.201C555.721 532.201 556.127 532.182 556.494 532.143C556.861 532.095 557.204 532.022 557.523 531.925C557.842 531.819 558.142 531.684 558.422 531.519C558.703 531.345 558.988 531.128 559.278 530.867C559.394 530.77 559.52 530.693 559.655 530.635C559.79 530.567 559.93 530.533 560.075 530.533ZM569.769 518.643V523.573H576.41V527.198H569.769V532.23H578.44V536H564.839V514.873H578.44V518.643H569.769ZM593.136 519.165C592.991 519.397 592.836 519.571 592.672 519.688C592.517 519.803 592.314 519.861 592.063 519.861C591.841 519.861 591.599 519.794 591.338 519.658C591.087 519.513 590.797 519.354 590.468 519.18C590.149 519.006 589.782 518.851 589.366 518.716C588.95 518.571 588.477 518.498 587.945 518.498C587.027 518.498 586.34 518.697 585.886 519.093C585.441 519.48 585.219 520.006 585.219 520.673C585.219 521.099 585.354 521.452 585.625 521.732C585.896 522.012 586.248 522.254 586.683 522.457C587.128 522.66 587.631 522.848 588.191 523.022C588.762 523.187 589.342 523.375 589.931 523.588C590.521 523.791 591.096 524.033 591.657 524.313C592.227 524.593 592.73 524.951 593.165 525.386C593.61 525.821 593.967 526.353 594.238 526.981C594.509 527.6 594.644 528.349 594.644 529.228C594.644 530.205 594.475 531.118 594.136 531.969C593.798 532.82 593.305 533.564 592.657 534.202C592.019 534.83 591.227 535.328 590.279 535.695C589.342 536.053 588.274 536.232 587.075 536.232C586.418 536.232 585.746 536.164 585.059 536.029C584.383 535.894 583.725 535.705 583.087 535.463C582.449 535.212 581.85 534.917 581.289 534.579C580.729 534.241 580.241 533.864 579.825 533.448L581.275 531.157C581.391 530.993 581.541 530.857 581.724 530.751C581.918 530.635 582.126 530.577 582.348 530.577C582.638 530.577 582.928 530.669 583.218 530.852C583.518 531.036 583.851 531.239 584.218 531.461C584.595 531.684 585.026 531.887 585.509 532.07C585.992 532.254 586.563 532.346 587.22 532.346C588.109 532.346 588.8 532.153 589.293 531.766C589.786 531.37 590.033 530.746 590.033 529.895C590.033 529.402 589.898 529.001 589.627 528.692C589.356 528.383 588.999 528.126 588.554 527.923C588.119 527.72 587.621 527.542 587.06 527.387C586.5 527.232 585.925 527.063 585.335 526.879C584.745 526.686 584.17 526.454 583.609 526.183C583.049 525.903 582.546 525.541 582.101 525.096C581.666 524.642 581.314 524.081 581.043 523.414C580.772 522.737 580.637 521.906 580.637 520.92C580.637 520.127 580.796 519.354 581.115 518.6C581.434 517.846 581.903 517.174 582.522 516.584C583.141 515.995 583.899 515.526 584.798 515.178C585.697 514.82 586.727 514.641 587.887 514.641C588.535 514.641 589.163 514.695 589.772 514.801C590.391 514.898 590.975 515.047 591.526 515.25C592.077 515.444 592.59 515.681 593.063 515.961C593.547 516.232 593.977 516.541 594.354 516.889L593.136 519.165Z" fill="#767676"/>
<path d="M172.8 499H159.003L156.521 488.488C156.423 488.099 156.253 487.442 156.01 486.517C155.815 485.544 155.572 484.838 155.28 484.4C154.988 483.913 154.574 483.597 154.039 483.451C152.676 483.5 150.681 483.524 148.053 483.524V499H134.913V457.755C140.801 457.317 146.301 457.098 151.411 457.098C156.034 457.098 159.781 457.487 162.653 458.266C165.524 458.996 167.665 460.286 169.077 462.135C170.537 463.936 171.267 466.418 171.267 469.581C171.267 472.55 170.585 474.886 169.223 476.589C167.86 478.244 165.67 479.241 162.653 479.582V480.02C164.356 480.166 165.767 480.726 166.887 481.699C168.055 482.624 168.833 483.816 169.223 485.276L172.8 499ZM148.053 475.275C148.491 475.324 149.342 475.348 150.608 475.348C154.355 475.348 156.545 475.032 157.178 474.399C157.762 473.815 158.054 472.452 158.054 470.311C158.054 468.316 157.518 466.953 156.448 466.223C155.426 465.493 153.722 465.128 151.338 465.128C150.802 465.128 149.707 465.177 148.053 465.274V475.275ZM176.893 457.39H207.188V466.15H190.033V473.742H204.487V481.626H190.033V490.094H207.115V499H176.893V457.39ZM212.614 457.39H242.471V466.442H225.754V474.691H239.551V482.648H225.754V499H212.614V457.39ZM284.795 499H270.998L268.516 488.488C268.418 488.099 268.248 487.442 268.005 486.517C267.81 485.544 267.567 484.838 267.275 484.4C266.983 483.913 266.569 483.597 266.034 483.451C264.671 483.5 262.676 483.524 260.048 483.524V499H246.908V457.755C252.796 457.317 258.296 457.098 263.406 457.098C268.029 457.098 271.776 457.487 274.648 458.266C277.519 458.996 279.66 460.286 281.072 462.135C282.532 463.936 283.262 466.418 283.262 469.581C283.262 472.55 282.58 474.886 281.218 476.589C279.855 478.244 277.665 479.241 274.648 479.582V480.02C276.351 480.166 277.762 480.726 278.882 481.699C280.05 482.624 280.828 483.816 281.218 485.276L284.795 499ZM260.048 475.275C260.486 475.324 261.337 475.348 262.603 475.348C266.35 475.348 268.54 475.032 269.173 474.399C269.757 473.815 270.049 472.452 270.049 470.311C270.049 468.316 269.513 466.953 268.443 466.223C267.421 465.493 265.717 465.128 263.333 465.128C262.797 465.128 261.702 465.177 260.048 465.274V475.275ZM289.327 457.39H302.467V499H289.327V457.39ZM346.21 475.932V496.737C342.949 497.808 339.859 498.586 336.939 499.073C334.019 499.56 331.561 499.803 329.566 499.803C322.947 499.803 317.764 498.075 314.017 494.62C310.27 491.165 308.396 485.86 308.396 478.706C308.396 471.406 310.367 465.955 314.309 462.354C318.251 458.704 323.799 456.879 330.953 456.879C334.7 456.879 339.202 457.439 344.458 458.558C344.458 459.531 344.361 460.991 344.166 462.938C343.971 464.836 343.777 466.174 343.582 466.953L340.954 466.88C337.742 466.783 335.236 466.734 333.435 466.734C328.033 466.734 325.089 467.05 324.602 467.683C323.823 468.608 323.264 470.043 322.923 471.99C322.631 473.937 322.485 475.81 322.485 477.611C322.485 480.872 322.85 483.402 323.58 485.203C324.31 487.004 325.429 488.269 326.938 488.999C328.447 489.729 330.491 490.094 333.07 490.094H333.362V475.932H346.21ZM352.051 457.39H382.346V466.15H365.191V473.742H379.645V481.626H365.191V490.094H382.273V499H352.051V457.39ZM425.805 499H412.008L409.526 488.488C409.428 488.099 409.258 487.442 409.015 486.517C408.82 485.544 408.577 484.838 408.285 484.4C407.993 483.913 407.579 483.597 407.044 483.451C405.681 483.5 403.686 483.524 401.058 483.524V499H387.918V457.755C393.806 457.317 399.306 457.098 404.416 457.098C409.039 457.098 412.786 457.487 415.658 458.266C418.529 458.996 420.67 460.286 422.082 462.135C423.542 463.936 424.272 466.418 424.272 469.581C424.272 472.55 423.59 474.886 422.228 476.589C420.865 478.244 418.675 479.241 415.658 479.582V480.02C417.361 480.166 418.772 480.726 419.892 481.699C421.06 482.624 421.838 483.816 422.228 485.276L425.805 499ZM401.058 475.275C401.496 475.324 402.347 475.348 403.613 475.348C407.36 475.348 409.55 475.032 410.183 474.399C410.767 473.815 411.059 472.452 411.059 470.311C411.059 468.316 410.523 466.953 409.453 466.223C408.431 465.493 406.727 465.128 404.343 465.128C403.807 465.128 402.712 465.177 401.058 465.274V475.275ZM454.353 489.875H442.235L440.045 499H426.613L440.045 457.39H457.2L470.048 499H456.543L454.353 489.875ZM448.221 466.369L443.914 481.772H452.601L448.513 466.369H448.221ZM492.226 499H479.086V466.515H467.333V457.39H503.979V466.515H492.226V499ZM508.255 457.39H521.395V499H508.255V457.39ZM549.079 499.949C541.827 499.949 536.377 498.246 532.727 494.839C529.125 491.384 527.325 485.86 527.325 478.268C527.325 470.822 529.32 465.396 533.311 461.989C537.301 458.582 542.582 456.879 549.152 456.879C562.973 456.879 569.884 463.765 569.884 477.538C569.884 484.497 568.18 489.972 564.774 493.963C561.416 497.954 556.184 499.949 549.079 499.949ZM548.787 491.335C550.149 491.335 551.293 491.116 552.218 490.678C553.142 490.191 553.872 489.364 554.408 488.196C555.43 486.201 555.941 482.94 555.941 478.414C555.941 473.985 555.43 470.773 554.408 468.778C553.386 466.734 551.512 465.663 548.787 465.566C547.765 465.566 546.694 465.688 545.575 465.931C544.504 466.126 543.823 466.418 543.531 466.807C542.947 467.488 542.484 468.948 542.144 471.187C541.852 473.377 541.706 475.786 541.706 478.414C541.706 482.502 542.095 485.495 542.874 487.393C543.409 488.804 544.163 489.826 545.137 490.459C546.11 491.043 547.327 491.335 548.787 491.335ZM587.884 482.21V499H575.693V457.39H588.03L599.053 474.18C600.708 476.662 601.973 478.755 602.849 480.458H603.068V473.45V457.39H615.186V499H602.776L591.461 481.48L588.176 476.516H587.957L587.884 482.21Z" fill="#3443A0"/>
<path d="M142.504 400.39H172.361V409.442H155.644V417.691H169.441V425.648H155.644V442H142.504V400.39ZM182.929 442.584C180.934 442.584 179.279 441.927 177.965 440.613C176.7 439.299 176.067 437.523 176.067 435.284C176.067 433.337 176.724 431.707 178.038 430.393C179.401 429.03 181.104 428.349 183.148 428.349C185.095 428.349 186.725 429.03 188.039 430.393C189.353 431.707 190.01 433.337 190.01 435.284C190.01 437.523 189.353 439.299 188.039 440.613C186.774 441.927 185.071 442.584 182.929 442.584ZM224.384 400.171C228.326 400.171 231.66 400.536 234.385 401.266C237.111 401.996 239.276 403.407 240.882 405.5C242.537 407.544 243.364 410.488 243.364 414.333C243.364 416.036 243.097 417.788 242.561 419.589C242.075 421.341 241.442 422.874 240.663 424.188C239.933 425.502 239.276 426.354 238.692 426.743C238.011 427.23 236.502 427.619 234.166 427.911C231.83 428.154 229.081 428.276 225.917 428.276C224.798 428.276 223.07 428.227 220.734 428.13V442H207.594V400.39C212.704 400.244 218.301 400.171 224.384 400.171ZM229.859 418.932C230.346 418.299 230.589 417.034 230.589 415.136C230.589 412.654 230.054 410.902 228.983 409.88C227.961 408.858 226.161 408.347 223.581 408.347C222.705 408.347 221.756 408.42 220.734 408.566V419.662C221.221 419.711 222.17 419.735 223.581 419.735C227.329 419.735 229.421 419.467 229.859 418.932ZM271.178 432.875H259.06L256.87 442H243.438L256.87 400.39H274.025L286.873 442H273.368L271.178 432.875ZM265.046 409.369L260.739 424.772H269.426L265.338 409.369H265.046ZM344.159 442H331.895L330.946 419.078C330.8 414.552 330.629 411.121 330.435 408.785H330.216C329.632 410.634 328.95 413.506 328.172 417.399L327.807 419.224L322.77 442H310.506L306.272 421.487L305.542 417.837C304.52 413.311 303.814 410.294 303.425 408.785H303.206C303.011 411.218 302.841 415.185 302.695 420.684C302.646 421.025 302.622 421.56 302.622 422.29L301.965 442H289.628L291.38 400.39H312.258L315.835 418.348L316.711 423.166C317.1 421.657 317.465 419.978 317.806 418.129L321.164 400.39H342.48L344.159 442ZM367.39 400.171C371.332 400.171 374.666 400.536 377.391 401.266C380.117 401.996 382.282 403.407 383.888 405.5C385.543 407.544 386.37 410.488 386.37 414.333C386.37 416.036 386.103 417.788 385.567 419.589C385.081 421.341 384.448 422.874 383.669 424.188C382.939 425.502 382.282 426.354 381.698 426.743C381.017 427.23 379.508 427.619 377.172 427.911C374.836 428.154 372.087 428.276 368.923 428.276C367.804 428.276 366.076 428.227 363.74 428.13V442H350.6V400.39C355.71 400.244 361.307 400.171 367.39 400.171ZM372.865 418.932C373.352 418.299 373.595 417.034 373.595 415.136C373.595 412.654 373.06 410.902 371.989 409.88C370.967 408.858 369.167 408.347 366.587 408.347C365.711 408.347 364.762 408.42 363.74 408.566V419.662C364.227 419.711 365.176 419.735 366.587 419.735C370.335 419.735 372.427 419.467 372.865 418.932ZM390.875 400.39H404.015V432.364H421.024V442H390.875V400.39ZM446.033 442.949C438.782 442.949 433.331 441.246 429.681 437.839C426.08 434.384 424.279 428.86 424.279 421.268C424.279 413.822 426.274 408.396 430.265 404.989C434.256 401.582 439.536 399.879 446.106 399.879C459.927 399.879 466.838 406.765 466.838 420.538C466.838 427.497 465.135 432.972 461.728 436.963C458.37 440.954 453.138 442.949 446.033 442.949ZM445.741 434.335C447.104 434.335 448.247 434.116 449.172 433.678C450.097 433.191 450.827 432.364 451.362 431.196C452.384 429.201 452.895 425.94 452.895 421.414C452.895 416.985 452.384 413.773 451.362 411.778C450.34 409.734 448.466 408.663 445.741 408.566C444.719 408.566 443.648 408.688 442.529 408.931C441.458 409.126 440.777 409.418 440.485 409.807C439.901 410.488 439.439 411.948 439.098 414.187C438.806 416.377 438.66 418.786 438.66 421.414C438.66 425.502 439.049 428.495 439.828 430.393C440.363 431.804 441.118 432.826 442.091 433.459C443.064 434.043 444.281 434.335 445.741 434.335ZM484.838 425.21V442H472.647V400.39H484.984L496.007 417.18C497.662 419.662 498.927 421.755 499.803 423.458H500.022V416.45V400.39H512.14V442H499.73L488.415 424.48L485.13 419.516H484.911L484.838 425.21ZM543.431 432.875H531.313L529.123 442H515.691L529.123 400.39H546.278L559.126 442H545.621L543.431 432.875ZM537.299 409.369L532.992 424.772H541.679L537.591 409.369H537.299ZM559.836 413.457C561.004 409.856 561.637 404.673 561.734 397.908C562.075 397.859 562.61 397.835 563.34 397.835C564.606 397.835 565.847 398.005 567.063 398.346C568.28 398.687 569.326 399.198 570.202 399.879C569.959 402.312 569.472 405.013 568.742 407.982C568.012 410.951 566.966 413.262 565.603 414.917C564.679 414.966 563.657 414.844 562.537 414.552C561.467 414.26 560.566 413.895 559.836 413.457ZM587.988 411.632C587.988 412.654 588.499 413.457 589.521 414.041C590.592 414.625 592.247 415.258 594.485 415.939C597.162 416.815 599.352 417.667 601.055 418.494C602.807 419.321 604.316 420.611 605.581 422.363C606.895 424.115 607.552 426.402 607.552 429.225C607.552 438.277 601.664 442.803 589.886 442.803C587.94 442.803 585.555 442.633 582.732 442.292C579.958 441.951 577.428 441.513 575.14 440.978C575.238 439.956 575.432 438.472 575.724 436.525C576.065 434.53 576.381 433.045 576.673 432.072C578.377 432.315 580.932 432.607 584.338 432.948C587.794 433.289 590.397 433.459 592.149 433.459C593.171 433.459 593.78 433.386 593.974 433.24C594.266 433.045 594.485 432.729 594.631 432.291C594.826 431.804 594.923 431.391 594.923 431.05C594.923 430.077 594.461 429.347 593.536 428.86C592.612 428.325 591.03 427.692 588.791 426.962C586.115 426.135 583.9 425.283 582.148 424.407C580.396 423.531 578.863 422.168 577.549 420.319C576.235 418.47 575.578 416.036 575.578 413.019C575.578 410.878 576.065 408.785 577.038 406.741C578.012 404.648 579.009 403.237 580.031 402.507C580.81 401.972 582.416 401.461 584.849 400.974C587.283 400.487 589.57 400.244 591.711 400.244C597.162 400.244 601.615 400.755 605.07 401.777C605.022 402.75 604.851 404.089 604.559 405.792C604.316 407.495 604.048 409.053 603.756 410.464L602.077 410.391C595.751 409.953 591.711 409.734 589.959 409.734C589.229 409.734 588.816 409.758 588.718 409.807C588.524 409.904 588.353 410.123 588.207 410.464C588.061 410.805 587.988 411.194 587.988 411.632Z" fill="#FC6030"/>
<path d="M232 262H246" stroke="#FC6030" stroke-width="10" stroke-linecap="round"/>
<path d="M230.942 336.321L242.933 329.094" stroke="#FC6030" stroke-width="6" stroke-linecap="round"/>
<path d="M491.696 329.561L504.295 335.666" stroke="#FC6030" stroke-width="6" stroke-linecap="round"/>
<path d="M247.69 354.133L256.301 343.094" stroke="#FC6030" stroke-width="6" stroke-linecap="round"/>
<path d="M486.638 354.018L477.973 343.021" stroke="#FC6030" stroke-width="6" stroke-linecap="round"/>
<path d="M279 371C291.5 353.5 271.5 345 281.5 330" stroke="#FC6030" stroke-width="9" stroke-linecap="round"/>
<path d="M311.411 371C325 353 304.5 344.5 314.5 330.5" stroke="#FC6030" stroke-width="9" stroke-linecap="round"/>
<path d="M345 370.5C358.589 352.5 338.089 344 348.089 330" stroke="#FC6030" stroke-width="9" stroke-linecap="round"/>
<path d="M382 370.5C395.589 352.5 375.089 344 385.089 330" stroke="#FC6030" stroke-width="9" stroke-linecap="round"/>
<path d="M416 370.5C429.589 352.5 409.089 344 419.089 330" stroke="#FC6030" stroke-width="9" stroke-linecap="round"/>
<path d="M450 370.5C463.589 352.5 443.089 344 453.089 330" stroke="#FC6030" stroke-width="9" stroke-linecap="round"/>
<path d="M339 250H395" stroke="#FC6030" stroke-width="12" stroke-linecap="round"/>
<circle cx="449" cy="265" r="6" fill="#FC6030"/>
<circle cx="473" cy="265" r="6" fill="#FC6030"/>
<circle cx="497" cy="265" r="6" fill="#FC6030"/>
<path d="M217.5 219C217.5 215.41 220.41 212.5 224 212.5H508C513.247 212.5 517.5 216.753 517.5 222V289C517.5 303.083 506.083 314.5 492 314.5H243C228.917 314.5 217.5 303.083 217.5 289V219Z" stroke="#3443A0" stroke-width="9"/>
<path d="M222 281H513" stroke="#3443A0" stroke-width="5"/>
<line x1="253" y1="306.5" x2="480" y2="306.5" stroke="#3443A0" stroke-width="7"/>
<mask id="path-24-inside-1_11_40" fill="white">
<path d="M248 299C248 295.686 250.686 293 254 293H479C482.314 293 485 295.686 485 299V310H248V299Z"/>
</mask>
<path d="M243 299C243 292.925 247.925 288 254 288H479C485.075 288 490 292.925 490 299H480C480 298.448 479.552 298 479 298H254C253.448 298 253 298.448 253 299H243ZM485 310H248H485ZM243 310V299C243 292.925 247.925 288 254 288V298C253.448 298 253 298.448 253 299V310H243ZM479 288C485.075 288 490 292.925 490 299V310H480V299C480 298.448 479.552 298 479 298V288Z" fill="#3443A0" mask="url(#path-24-inside-1_11_40)"/>
</svg>
